<svg width="1217" height="536" viewBox="0 0 1217 536" fill="none" xmlns="http://www.w3.org/2000/svg">
<rect width="1217" height="536" rx="24" fill="#AE1D29"/>
<mask id="mask0_196_1596" style="mask-type:alpha" maskUnits="userSpaceOnUse" x="0" y="0" width="1217" height="536">
<path d="M0 24C0 10.7452 10.7452 0 24 0H1193C1206.25 0 1217 10.7452 1217 24V512C1217 525.255 1206.25 536 1193 536H24C10.7452 536 0 525.255 0 512V24Z" fill="#FF0161"/>
</mask>
<g mask="url(#mask0_196_1596)">
<g filter="url(#filter0_f_196_1596)">
<ellipse cx="1319.05" cy="247" rx="514.628" ry="515" fill="#4470B5"/>
</g>
<g filter="url(#filter1_f_196_1596)">
<ellipse cx="633.542" cy="883.5" rx="514.628" ry="597.5" fill="#00317E"/>
</g>
<g opacity="0.5" filter="url(#filter2_b_196_1596)">
<rect width="1217" height="537" rx="24" fill="url(#paint0_linear_196_1596)"/>
</g>
</g>
<defs>
<filter id="filter0_f_196_1596" x="490.418" y="-582" width="1657.25" height="1658" filterUnits="userSpaceOnUse" color-interpolation-filters="sRGB">
<feFlood flood-opacity="0" result="BackgroundImageFix"/>
<feBlend mode="normal" in="SourceGraphic" in2="BackgroundImageFix" result="shape"/>
<feGaussianBlur stdDeviation="157" result="effect1_foregroundBlur_196_1596"/>
</filter>
<filter id="filter1_f_196_1596" x="-135.086" y="32" width="1537.25" height="1703" filterUnits="userSpaceOnUse" color-interpolation-filters="sRGB">
<feFlood flood-opacity="0" result="BackgroundImageFix"/>
<feBlend mode="normal" in="SourceGraphic" in2="BackgroundImageFix" result="shape"/>
<feGaussianBlur stdDeviation="127" result="effect1_foregroundBlur_196_1596"/>
</filter>
<filter id="filter2_b_196_1596" x="-60" y="-60" width="1337" height="657" filterUnits="userSpaceOnUse" color-interpolation-filters="sRGB">
<feFlood flood-opacity="0" result="BackgroundImageFix"/>
<feGaussianBlur in="BackgroundImageFix" stdDeviation="30"/>
<feComposite in2="SourceAlpha" operator="in" result="effect1_backgroundBlur_196_1596"/>
<feBlend mode="normal" in="SourceGraphic" in2="effect1_backgroundBlur_196_1596" result="shape"/>
</filter>
<linearGradient id="paint0_linear_196_1596" x1="14.7388" y1="13.9682" x2="1002.52" y2="804.867" gradientUnits="userSpaceOnUse">
<stop stop-color="#C9C9C9" stop-opacity="0.8"/>
<stop offset="1" stop-color="#C4C4C4" stop-opacity="0.1"/>
</linearGradient>
</defs>
</svg>